<svg width="40" height="40" viewBox="0 0 40 40" fill="none" xmlns="http://www.w3.org/2000/svg">
<g filter="url(#filter0_d_78_291)">
<path d="M5 33C4.44772 33 4 32.5523 4 32V13.5352C4 13.2008 4.1671 12.8886 4.4453 12.7031L18.4453 3.3698C18.7812 3.14587 19.2188 3.14587 19.5547 3.3698L33.5547 12.7031C33.8329 12.8886 34 13.2008 34 13.5352V32C34 32.5523 33.5523 33 33 33H23.75C23.1977 33 22.75 32.5523 22.75 32V22.3333C22.75 21.781 22.3023 21.3333 21.75 21.3333H16.25C15.6977 21.3333 15.25 21.781 15.25 22.3333V32C15.25 32.5523 14.8023 33 14.25 33H5Z" fill="white"/>
<path d="M5 33C4.44772 33 4 32.5523 4 32V13.5352C4 13.2008 4.1671 12.8886 4.4453 12.7031L18.4453 3.3698C18.7812 3.14587 19.2188 3.14587 19.5547 3.3698L33.5547 12.7031C33.8329 12.8886 34 13.2008 34 13.5352V32C34 32.5523 33.5523 33 33 33H23.75C23.1977 33 22.75 32.5523 22.75 32V22.3333C22.75 21.781 22.3023 21.3333 21.75 21.3333H16.25C15.6977 21.3333 15.25 21.781 15.25 22.3333V32C15.25 32.5523 14.8023 33 14.25 33H5Z" stroke="black" stroke-width="1.7"/>
</g>
<defs>
<filter id="filter0_d_78_291" x="0.150024" y="0.351868" width="39.7" height="39.4981" filterUnits="userSpaceOnUse" color-interpolation-filters="sRGB">
<feFlood flood-opacity="0" result="BackgroundImageFix"/>
<feColorMatrix in="SourceAlpha" type="matrix" values="0 0 0 0 0 0 0 0 0 0 0 0 0 0 0 0 0 0 127 0" result="hardAlpha"/>
<feOffset dx="1" dy="2"/>
<feGaussianBlur stdDeviation="2"/>
<feComposite in2="hardAlpha" operator="out"/>
<feColorMatrix type="matrix" values="0 0 0 0 0 0 0 0 0 0 0 0 0 0 0 0 0 0 0.15 0"/>
<feBlend mode="normal" in2="BackgroundImageFix" result="effect1_dropShadow_78_291"/>
<feBlend mode="normal" in="SourceGraphic" in2="effect1_dropShadow_78_291" result="shape"/>
</filter>
</defs>
</svg>
