<svg width="38" height="38" viewBox="0 0 38 38" fill="none" xmlns="http://www.w3.org/2000/svg">
<g filter="url(#filter0_d_78_296)">
<path d="M9.25 31.25H5C4.30964 31.25 3.75 30.6904 3.75 30V14C3.75 13.3096 4.30964 12.75 5 12.75H9.25C9.94036 12.75 10.5 13.3096 10.5 14V30C10.5 30.6904 9.94036 31.25 9.25 31.25ZM15.875 2.75H20.125C20.8154 2.75 21.375 3.30964 21.375 4V30C21.375 30.6904 20.8154 31.25 20.125 31.25H15.875C15.1846 31.25 14.625 30.6904 14.625 30V4C14.625 3.30964 15.1846 2.75 15.875 2.75ZM26.75 16.0833H31C31.6904 16.0833 32.25 16.643 32.25 17.3333V30C32.25 30.6904 31.6904 31.25 31 31.25H26.75C26.0596 31.25 25.5 30.6904 25.5 30V17.3333C25.5 16.643 26.0596 16.0833 26.75 16.0833Z" fill="white" stroke="black" stroke-width="1.5"/>
</g>
<defs>
<filter id="filter0_d_78_296" x="0" y="0" width="38" height="38" filterUnits="userSpaceOnUse" color-interpolation-filters="sRGB">
<feFlood flood-opacity="0" result="BackgroundImageFix"/>
<feColorMatrix in="SourceAlpha" type="matrix" values="0 0 0 0 0 0 0 0 0 0 0 0 0 0 0 0 0 0 127 0" result="hardAlpha"/>
<feOffset dx="1" dy="2"/>
<feGaussianBlur stdDeviation="2"/>
<feComposite in2="hardAlpha" operator="out"/>
<feColorMatrix type="matrix" values="0 0 0 0 0 0 0 0 0 0 0 0 0 0 0 0 0 0 0.15 0"/>
<feBlend mode="normal" in2="BackgroundImageFix" result="effect1_dropShadow_78_296"/>
<feBlend mode="normal" in="SourceGraphic" in2="effect1_dropShadow_78_296" result="shape"/>
</filter>
</defs>
</svg>
