<svg width="40" height="40" viewBox="0 0 40 40" fill="none" xmlns="http://www.w3.org/2000/svg">
<g filter="url(#filter0_d_78_292)">
<path d="M19 3C16.6131 3 14.3239 3.94821 12.636 5.63604C10.9482 7.32387 10 9.61305 10 12C10 14.1285 10.453 15.522 11.6875 17.0625L19 25.5L26.3125 17.0625C27.547 15.522 28 14.1285 28 12C28 9.61305 27.0518 7.32387 25.364 5.63604C23.6761 3.94821 21.3869 3 19 3Z" stroke="black" stroke-width="2" stroke-linecap="round" stroke-linejoin="round"/>
<path d="M8.5 22.7145C5.7235 23.805 4 25.3215 4 27C4 30.315 10.7155 33 19 33C27.2845 33 34 30.315 34 27C34 25.3215 32.2765 23.805 29.5 22.7145" stroke="black" stroke-width="2" stroke-linecap="round" stroke-linejoin="round"/>
<path d="M19 13.5C19.8284 13.5 20.5 12.8284 20.5 12C20.5 11.1716 19.8284 10.5 19 10.5C18.1716 10.5 17.5 11.1716 17.5 12C17.5 12.8284 18.1716 13.5 19 13.5Z" stroke="black" stroke-width="2" stroke-linecap="round" stroke-linejoin="round"/>
</g>
<defs>
<filter id="filter0_d_78_292" x="0" y="0" width="40" height="40.0001" filterUnits="userSpaceOnUse" color-interpolation-filters="sRGB">
<feFlood flood-opacity="0" result="BackgroundImageFix"/>
<feColorMatrix in="SourceAlpha" type="matrix" values="0 0 0 0 0 0 0 0 0 0 0 0 0 0 0 0 0 0 127 0" result="hardAlpha"/>
<feOffset dx="1" dy="2"/>
<feGaussianBlur stdDeviation="2"/>
<feComposite in2="hardAlpha" operator="out"/>
<feColorMatrix type="matrix" values="0 0 0 0 0 0 0 0 0 0 0 0 0 0 0 0 0 0 0.15 0"/>
<feBlend mode="normal" in2="BackgroundImageFix" result="effect1_dropShadow_78_292"/>
<feBlend mode="normal" in="SourceGraphic" in2="effect1_dropShadow_78_292" result="shape"/>
</filter>
</defs>
</svg>
