<svg width="76" height="76" viewBox="0 0 76 76" fill="none" xmlns="http://www.w3.org/2000/svg">
<g filter="url(#filter0_d_90_214)">
<circle cx="38" cy="37" r="30" fill="#57CC99"/>
<circle cx="38" cy="37" r="30" stroke="#D8F3DC"/>
</g>
<path d="M20 30.25V24C20 22.6739 20.5268 21.4021 21.4645 20.4645C22.4021 19.5268 23.6739 19 25 19H31.25M43.75 19H50C51.3261 19 52.5979 19.5268 53.5355 20.4645C54.4732 21.4021 55 22.6739 55 24V30.25M20 42.75V49C20 50.3261 20.5268 51.5979 21.4645 52.5355C22.4021 53.4732 23.6739 54 25 54H31.25M55 42.75V49C55 50.3261 54.4732 51.5979 53.5355 52.5355C52.5979 53.4732 51.3261 54 50 54H43.75M21 36.5H54" stroke="white" stroke-width="2"/>
<path d="M29 39H46V44C46 45.6569 44.6569 47 43 47H32C30.3431 47 29 45.6569 29 44V39Z" fill="white"/>
<path d="M46 34.0262L29 34L29.0078 29C29.0103 27.3431 30.3555 26.002 32.0124 26.0046L43.0124 26.0216C44.6692 26.0242 46.0103 27.3694 46.0077 29.0263L46 34.0262Z" fill="white"/>
<defs>
<filter id="filter0_d_90_214" x="0.5" y="0.5" width="75" height="75" filterUnits="userSpaceOnUse" color-interpolation-filters="sRGB">
<feFlood flood-opacity="0" result="BackgroundImageFix"/>
<feColorMatrix in="SourceAlpha" type="matrix" values="0 0 0 0 0 0 0 0 0 0 0 0 0 0 0 0 0 0 127 0" result="hardAlpha"/>
<feMorphology radius="2" operator="dilate" in="SourceAlpha" result="effect1_dropShadow_90_214"/>
<feOffset dy="1"/>
<feGaussianBlur stdDeviation="2.5"/>
<feComposite in2="hardAlpha" operator="out"/>
<feColorMatrix type="matrix" values="0 0 0 0 0.847059 0 0 0 0 0.952941 0 0 0 0 0.862745 0 0 0 0.8 0"/>
<feBlend mode="normal" in2="BackgroundImageFix" result="effect1_dropShadow_90_214"/>
<feBlend mode="normal" in="SourceGraphic" in2="effect1_dropShadow_90_214" result="shape"/>
</filter>
</defs>
</svg>
