<svg width="250" height="324" viewBox="0 0 250 324" fill="none" xmlns="http://www.w3.org/2000/svg">
<path fill-rule="evenodd" clip-rule="evenodd" d="M35.3816 78.5712C35.3816 60.3054 50.1889 45.498 68.4547 45.498H92.3704C110.636 45.498 125.444 60.3054 125.444 78.5712V95.7932C143.289 96.2743 157.609 110.892 157.609 128.854V153.846C157.609 172.111 142.801 186.919 124.535 186.919H100.62C92.2612 186.919 84.6269 183.818 78.8043 178.704C72.9817 183.818 65.3473 186.919 56.9888 186.919H33.0732C14.8073 186.919 0 172.111 0 153.846V128.854C0 110.588 14.8074 95.781 33.0732 95.781H35.3816V78.5712Z" fill="#66A865"/>
<path fill-rule="evenodd" clip-rule="evenodd" d="M130.425 231.001C118.588 244.912 97.4983 246.853 83.3208 235.336L68.1779 223.035C54.0004 211.518 52.1035 190.904 63.9409 176.994L74.1529 164.993C61.6978 153.24 60.4866 133.861 71.7829 120.586L86.1658 103.684C98.0033 89.7731 119.093 87.8323 133.27 99.3492L148.413 111.65C155.107 117.088 159.064 124.554 160.129 132.385C168.204 131.979 176.439 134.416 183.133 139.855L198.276 152.156C212.454 163.673 214.351 184.286 202.513 198.197L188.13 215.099C176.293 229.01 155.204 230.951 141.026 219.434L140.578 219.07L130.425 231.001Z" fill="#66A865"/>
<path fill-rule="evenodd" clip-rule="evenodd" d="M125.837 63.9052C125.837 45.6394 140.644 30.832 158.91 30.832H183.826C202.092 30.832 216.9 45.6394 216.9 63.9052V81.6781C234.912 81.972 249.422 96.6648 249.422 114.747V140.751C249.422 159.017 234.615 173.824 216.349 173.824H191.433C183.134 173.824 175.549 170.767 169.742 165.719C163.936 170.767 156.351 173.824 148.052 173.824H123.136C104.87 173.824 90.0625 159.017 90.0625 140.751V114.747C90.0625 96.481 104.87 81.6736 123.136 81.6736H125.837V63.9052Z" fill="#66A865"/>
<path fill-rule="evenodd" clip-rule="evenodd" d="M124.562 43.2568C124.562 24.991 139.369 10.1836 157.635 10.1836H182.551C200.817 10.1836 215.624 24.991 215.624 43.2568V61.0296C233.636 61.3235 248.147 76.0163 248.147 94.0983V120.102C248.147 138.368 233.34 153.176 215.074 153.176H190.157C181.859 153.176 174.274 150.119 168.467 145.07C162.66 150.119 155.075 153.176 146.777 153.176H121.86C103.594 153.176 88.7871 138.368 88.7871 120.102V94.0983C88.7871 75.8325 103.594 61.0251 121.86 61.0251H124.562V43.2568Z" fill="#66A865"/>
<path fill-rule="evenodd" clip-rule="evenodd" d="M50.7853 37.2739C50.7853 19.0081 65.5927 4.20068 83.8585 4.20068H92.4302C110.696 4.20068 125.503 19.0081 125.503 37.2739V46.5335C140.712 49.5099 152.188 62.9099 152.188 78.9902V88.4545C152.188 106.72 137.381 121.528 119.115 121.528H110.543C101.232 121.528 92.8203 117.68 86.8099 111.488C80.7995 117.68 72.3873 121.528 63.0765 121.528H54.5048C36.239 121.528 21.4316 106.72 21.4316 88.4545V78.9902C21.4316 61.9819 34.2704 47.9722 50.7853 46.1238V37.2739Z" fill="#66A865"/>
<path fill-rule="evenodd" clip-rule="evenodd" d="M80.3387 73.1704C80.3387 54.9045 95.146 40.0972 113.412 40.0972H119.278C137.544 40.0972 152.351 54.9045 152.351 73.1703V79.8967C152.351 80.3057 152.344 80.713 152.329 81.1184C167.066 84.4542 178.069 97.63 178.069 113.376V120.102C178.069 138.368 163.262 153.175 144.996 153.175H139.13C129.643 153.175 121.09 149.181 115.059 142.783C109.028 149.181 100.474 153.175 90.9871 153.175H85.121C66.8552 153.175 52.0479 138.368 52.0479 120.102V113.376C52.0479 96.7313 64.3433 82.9585 80.347 80.6447C80.3414 80.396 80.3387 80.1467 80.3387 79.8967V73.1704Z" fill="#66A865"/>
<path fill-rule="evenodd" clip-rule="evenodd" d="M3.29248 117.88C8.37621 129.607 20.0557 137.811 33.6513 137.811H57.5669C60.4977 137.811 63.3394 137.429 66.0452 136.714C67.3265 138.216 68.7651 139.626 70.3588 140.92L85.5017 153.221C99.6792 164.738 120.769 162.797 132.606 148.887L142.759 136.955L143.207 137.32C157.384 148.836 178.474 146.896 190.311 132.985L197.348 124.716H216.926C232.027 124.716 244.764 114.595 248.725 100.767V107.792C249.555 110.69 250 113.751 250 116.916V142.92C250 161.186 235.192 175.993 216.926 175.993H210.683C211.584 184.465 209.118 193.284 203.091 200.365L188.708 217.268C176.871 231.179 155.782 233.12 141.604 221.603L141.156 221.238L131.003 233.17C119.166 247.081 98.0764 249.021 83.8989 237.504L68.756 225.203C57.674 216.201 54.0953 201.641 58.7144 189.068C58.3335 189.081 57.951 189.088 57.5669 189.088H33.6513C15.3855 189.088 0.578125 174.28 0.578125 156.014V131.023C0.578125 126.353 1.54614 121.909 3.29248 117.88Z" fill="#458244"/>
<path d="M108.954 160.997H134.405L155.148 324H87.8838L108.954 160.997Z" fill="#93642D"/>
<path d="M108.772 160.997H134.588L145.518 248.73H97.7783L108.772 160.997Z" fill="#714D22"/>
<path fill-rule="evenodd" clip-rule="evenodd" d="M108.575 230.455C75.0584 206.877 70.9842 171.449 73.3291 155.984L88.4721 158.176C86.7348 169.634 89.8045 198.82 117.52 218.317L108.575 230.455Z" fill="#714D22"/>
<path fill-rule="evenodd" clip-rule="evenodd" d="M133.89 206.525C167.407 182.946 171.482 147.519 169.137 132.054L153.994 134.246C155.731 145.703 152.661 174.889 124.946 194.387L133.89 206.525Z" fill="#714D22"/>
<path fill-rule="evenodd" clip-rule="evenodd" d="M87.1403 104.222C87.1403 87.6237 100.596 74.168 117.195 74.168C133.793 74.168 147.249 87.6237 147.249 104.222V104.94C147.249 106.281 147.161 107.602 146.991 108.896C159.538 112.508 168.716 124.073 168.716 137.782V138.5C168.716 155.098 155.261 168.554 138.662 168.554C129.686 168.554 121.628 164.619 116.121 158.379C110.614 164.619 102.557 168.554 93.5807 168.554C76.9821 168.554 63.5264 155.098 63.5264 138.5V137.782C63.5264 123.325 73.7338 111.252 87.3347 108.377C87.2063 107.249 87.1403 106.103 87.1403 104.94V104.222Z" fill="#66A865"/>
<path fill-rule="evenodd" clip-rule="evenodd" d="M141.173 116.234C141.173 104.602 150.602 95.1729 162.234 95.1729C173.866 95.1729 183.296 104.602 183.296 116.234V116.738C183.296 117.678 183.234 118.603 183.115 119.51C191.908 122.041 198.34 130.146 198.34 139.753V140.256C198.34 151.888 188.91 161.317 177.278 161.317C170.987 161.317 165.341 158.56 161.482 154.187C157.623 158.56 151.976 161.317 145.686 161.317C134.054 161.317 124.624 151.888 124.624 140.256V139.753C124.624 129.621 131.777 121.161 141.309 119.146C141.219 118.356 141.173 117.552 141.173 116.738V116.234Z" fill="#66A865"/>
<path fill-rule="evenodd" clip-rule="evenodd" d="M113.258 55.3073C126.528 64.3589 129.715 82.2917 120.377 95.3613C111.038 108.431 92.7102 111.688 79.4401 102.637L77.3241 101.193C76.4817 100.619 75.68 100.008 74.9196 99.3658C64.9761 107.219 50.6127 108.115 39.6814 100.659L37.5653 99.2155C24.2953 90.164 21.1082 72.2312 30.4468 59.1615C35.4971 52.0935 43.1763 47.8952 51.2629 46.9615C49.373 39.2227 50.76 30.7325 55.8103 23.6645C65.1489 10.5948 83.4768 7.33751 96.7469 16.3891L98.8629 17.8324C110.397 25.6998 114.314 40.2766 109.009 52.5379C109.733 52.9461 110.444 53.388 111.142 53.8639L113.258 55.3073Z" fill="#83C082"/>
</svg>
