<svg width="139" height="190" viewBox="0 0 139 190" fill="none" xmlns="http://www.w3.org/2000/svg">
<path fill-rule="evenodd" clip-rule="evenodd" d="M20.391 59.2836C20.391 45.8177 31.3073 34.9014 44.7733 34.9014H45.9159C59.3819 34.9014 70.2982 45.8177 70.2982 59.2836C70.2982 60.4209 70.2203 61.54 70.0696 62.6359C80.4669 65.4231 88.1223 74.9118 88.1223 86.1885C88.1223 99.6544 77.206 110.571 63.74 110.571H62.5974C55.3923 110.571 48.9171 107.445 44.4535 102.477C39.9899 107.445 33.5147 110.571 26.3095 110.571H25.1669C11.701 110.571 0.784668 99.6544 0.784668 86.1885C0.784668 74.2946 9.30097 64.3897 20.5684 62.2392C20.4513 61.2704 20.391 60.284 20.391 59.2836Z" fill="#66A865"/>
<path fill-rule="evenodd" clip-rule="evenodd" d="M76.6604 130.071C68.1117 139.771 52.9342 141.166 42.7607 133.186C32.5871 125.206 31.27 110.874 39.8188 101.174L40.5856 100.303C41.217 99.5869 41.8846 98.9157 42.5837 98.2903C36.7736 90.1501 37.1114 78.9947 44.1641 70.992L44.9309 70.1219C53.4797 60.4215 68.6571 59.0268 78.8306 67.0066C84.3323 71.3219 87.244 77.4951 87.406 83.7889C93.9949 82.7899 100.96 84.3637 106.462 88.6792C116.636 96.659 117.953 110.992 109.404 120.692L108.637 121.562C101.198 130.003 88.7397 132.155 78.9269 127.313C78.4661 127.959 77.9663 128.589 77.4273 129.201L76.6604 130.071Z" fill="#66A865"/>
<path fill-rule="evenodd" clip-rule="evenodd" d="M70.5167 51.7074C70.5167 38.0918 81.5543 27.0542 95.1699 27.0542H96.3252C109.941 27.0542 120.978 38.0918 120.978 51.7074C120.978 52.8572 120.9 53.9887 120.747 55.0967C131.26 57.9149 139 67.509 139 78.911C139 92.5265 127.963 103.564 114.347 103.564H113.192C105.907 103.564 99.3596 100.404 94.8464 95.3801C90.3332 100.404 83.786 103.564 76.5009 103.564H75.3456C61.73 103.564 50.6924 92.5265 50.6924 78.911C50.6924 66.8849 59.3033 56.87 70.696 54.6956C70.5776 53.7161 70.5167 52.7188 70.5167 51.7074Z" fill="#66A865"/>
<path fill-rule="evenodd" clip-rule="evenodd" d="M69.8094 40.659C69.8094 27.0435 80.847 16.0059 94.4626 16.0059H95.6179C109.233 16.0059 120.271 27.0435 120.271 40.659C120.271 41.809 120.192 42.9407 120.04 44.0488C130.553 46.8671 138.293 56.4611 138.293 67.8631C138.293 81.4787 127.255 92.5163 113.64 92.5163H112.485C105.199 92.5163 98.6522 89.3563 94.139 84.3321C89.6257 89.3563 83.0786 92.5163 75.7934 92.5163H74.638C61.0225 92.5163 49.9849 81.4787 49.9849 67.8631C49.9849 55.8369 58.596 45.822 69.9887 43.6477C69.8703 42.668 69.8094 41.6706 69.8094 40.659Z" fill="#66A865"/>
<path fill-rule="evenodd" clip-rule="evenodd" d="M28.9271 33.0329C28.9271 21.8612 37.9836 12.8047 49.1553 12.8047H50.1032C61.275 12.8047 70.3315 21.8612 70.3315 33.0329C70.3315 33.9764 70.2669 34.9048 70.1419 35.814C78.7677 38.1264 85.1188 45.9985 85.1188 55.3539C85.1188 66.5257 76.0623 75.5821 64.8906 75.5821H63.9426C57.9651 75.5821 52.5931 72.9894 48.89 68.8671C45.1868 72.9894 39.8149 75.5821 33.8373 75.5821H32.8894C21.7176 75.5821 12.6611 66.5257 12.6611 55.3539C12.6611 45.4864 19.7265 37.2691 29.0742 35.4849C28.977 34.6812 28.9271 33.8629 28.9271 33.0329Z" fill="#66A865"/>
<path fill-rule="evenodd" clip-rule="evenodd" d="M90.0298 41.9266C97.9084 49.7925 97.5584 62.1747 89.2481 69.5829C80.9377 76.9912 67.8141 76.6203 59.9355 68.7544L59.0137 67.834C58.4639 67.2851 57.9541 66.7141 57.4843 66.1244C49.4949 69.9884 39.4335 68.598 32.9376 62.1126L32.0158 61.1922C24.1372 53.3263 24.4872 40.9442 32.7975 33.5359C37.2918 29.5295 43.1937 27.7982 48.9126 28.2972C48.7079 22.8821 50.874 17.4207 55.3684 13.4141C63.6787 6.00581 76.8024 6.37677 84.681 14.2427L85.6028 15.163C92.4554 22.0046 93.0829 32.2629 87.6619 39.6932C88.1608 40.1048 88.6435 40.5425 89.108 41.0062L90.0298 41.9266Z" fill="#66A865"/>
<path fill-rule="evenodd" clip-rule="evenodd" d="M48.9835 63.8976C48.9835 53.1304 57.712 44.4019 68.4792 44.4019H69.3929C80.1601 44.4019 88.8886 53.1304 88.8886 63.8976C88.8886 64.807 88.8264 65.7018 88.7059 66.5781C97.0193 68.8068 103.14 76.3938 103.14 85.4104C103.14 96.1776 94.4117 104.906 83.6445 104.906H82.7309C76.9697 104.906 71.7922 102.407 68.2232 98.4342C64.6542 102.407 59.4767 104.906 53.7155 104.906H52.8019C42.0347 104.906 33.3062 96.1776 33.3062 85.4104C33.3062 75.9 40.1158 67.9802 49.1253 66.2608C49.0317 65.4861 48.9835 64.6975 48.9835 63.8976Z" fill="#66A865"/>
<path fill-rule="evenodd" clip-rule="evenodd" d="M2.85182 74.736C6.95261 82.4291 15.0559 87.6653 24.3823 87.6653H25.5249C28.7157 87.6653 31.7634 87.0524 34.5567 85.9378C31.6352 94.5098 34.2554 104.224 41.9758 110.28C52.1494 118.259 67.3268 116.865 75.8756 107.164L76.6424 106.294C77.1814 105.683 77.6811 105.053 78.1418 104.407C87.9547 109.249 100.413 107.097 107.852 98.6559L108.619 97.7858C113.012 92.8009 114.8 86.5927 114.119 80.6521C124.929 80.4124 134.022 73.2158 137.099 63.3628C137.368 64.8218 137.509 66.3259 137.509 67.8628C137.509 69.2192 137.399 70.5501 137.188 71.847C137.857 74.0851 138.215 76.4566 138.215 78.9119C138.215 92.3413 127.478 103.263 114.12 103.559C114.8 109.499 113.012 115.707 108.619 120.692L107.853 121.562C100.414 130.003 87.9552 132.155 78.1424 127.314C77.6816 127.959 77.1818 128.589 76.6428 129.201L75.876 130.071C67.3272 139.771 52.1498 141.166 41.9762 133.186C34.2554 127.13 31.6354 117.416 34.5574 108.843C31.764 109.958 28.716 110.571 25.5249 110.571H24.3823C10.9163 110.571 0 99.655 0 86.189C0 82.0494 1.03163 78.1507 2.85182 74.736Z" fill="#458244"/>
<path d="M60.8458 55.0474H79.1006L93.9783 189.11H45.7334L60.8458 55.0474Z" fill="#93642D"/>
<path d="M60.7151 55.0474H79.2312L87.0708 127.204H52.8301L60.7151 55.0474Z" fill="#714D22"/>
<path fill-rule="evenodd" clip-rule="evenodd" d="M50.3712 65.6168C50.3712 54.8496 59.0997 46.1211 69.8669 46.1211H70.7806C81.5478 46.1211 90.2763 54.8496 90.2763 65.6168C90.2763 66.5261 90.2141 67.4208 90.0936 68.2969C98.4069 70.5257 104.528 78.1126 104.528 87.1291C104.528 97.8963 95.7992 106.625 85.032 106.625H84.1183C78.3573 106.625 73.1798 104.126 69.6108 100.153C66.0417 104.126 60.8643 106.625 55.1032 106.625H54.1896C43.4224 106.625 34.6938 97.8963 34.6938 87.1291C34.6938 77.6188 41.5035 69.699 50.5129 67.9796C50.4193 67.2051 50.3712 66.4166 50.3712 65.6168Z" fill="#66A865"/>
<path fill-rule="evenodd" clip-rule="evenodd" d="M61.6701 39.7386C68.5815 44.1792 70.2863 53.1787 65.4779 59.8395C60.6695 66.5003 51.1687 68.3001 44.2573 63.8595L42.8049 62.9263C42.4185 62.6781 42.0484 62.4155 41.6947 62.14C36.5581 66.1699 29.1162 66.742 23.4281 63.0874L21.9758 62.1543C15.0643 57.7136 13.3595 48.7142 18.1679 42.0534C20.7684 38.4511 24.7413 36.2706 28.9348 35.73C27.9322 31.8509 28.6277 27.5649 31.228 23.9628C36.0364 17.302 45.5372 15.5022 52.4487 19.9428L53.901 20.876C59.9038 24.7328 61.9791 32.0286 59.2706 38.2443C59.5911 38.4188 59.907 38.6058 60.2177 38.8054L61.6701 39.7386Z" fill="#83C082"/>
</svg>
