<svg width="210" height="270" viewBox="0 0 210 270" fill="none" xmlns="http://www.w3.org/2000/svg">
<path d="M95.9966 149.512H114.041L128.747 269.962H81.0586L95.9966 149.512Z" fill="#93642D"/>
<path d="M95.8673 149.512H113.794L121.588 214.342H88.0732L95.8673 149.512Z" fill="#714D22"/>
<path fill-rule="evenodd" clip-rule="evenodd" d="M29.7894 93.2289C29.7894 74.9631 44.5967 60.1558 62.8626 60.1558H72.5436C90.8094 60.1558 105.617 74.9631 105.617 93.2289V94.4277C105.617 95.5739 105.558 96.7065 105.445 97.8226C120.935 100.573 132.698 114.105 132.698 130.385V131.584C132.698 149.85 117.891 164.657 99.6248 164.657H89.9438C80.7043 164.657 72.3498 160.869 66.349 154.76C60.3482 160.869 51.9937 164.657 42.7542 164.657H33.0732C14.8074 164.657 0 149.85 0 131.584V130.385C0 113.181 13.1366 99.0446 29.9265 97.46C29.8358 96.4614 29.7894 95.45 29.7894 94.4277V93.2289Z" fill="#66A865"/>
<path fill-rule="evenodd" clip-rule="evenodd" d="M114.787 192.099C102.072 205.213 79.708 207.248 64.8351 196.644L62.7185 195.135C47.8456 184.532 46.0961 165.305 58.8109 152.191L60.9681 149.966C61.6964 149.215 62.4564 148.5 63.2448 147.822C54.2568 136.91 54.7133 121.545 65.4134 110.509L67.5706 108.284C80.2854 95.1703 102.65 93.1354 117.523 103.739L119.639 105.248C127.54 110.881 131.737 118.947 132.03 127.238C141.59 125.972 151.604 128.038 159.505 133.671L161.621 135.18C176.494 145.784 178.244 165.011 165.529 178.124L163.372 180.349C152.075 192.001 133.162 194.906 118.652 187.973C118.115 188.62 117.546 189.254 116.944 189.874L114.787 192.099Z" fill="#66A865"/>
<path fill-rule="evenodd" clip-rule="evenodd" d="M105.947 82.392C105.947 64.1262 120.755 49.3188 139.021 49.3188H149.544C167.81 49.3188 182.617 64.1262 182.617 82.392V84.3391C182.617 85.3548 182.572 86.3599 182.482 87.3523C198.103 89.9944 210 103.588 210 119.961V121.908C210 140.174 195.192 154.981 176.926 154.981H166.403C157.217 154.981 148.906 151.236 142.913 145.191C136.92 151.236 128.609 154.981 119.424 154.981H108.9C90.6345 154.981 75.8271 140.174 75.8271 121.908V119.961C75.8271 102.654 89.1205 88.452 106.054 87.0085C105.983 86.1279 105.947 85.2377 105.947 84.3391V82.392Z" fill="#66A865"/>
<path fill-rule="evenodd" clip-rule="evenodd" d="M86.5874 33.9175C93.4694 19.6623 111.141 12.3991 126.059 17.6947L130.163 19.1516C145.08 24.4472 151.594 40.2963 144.712 54.5515C144.17 55.6749 143.561 56.7548 142.891 57.7886C153.641 64.6719 157.647 78.1277 151.721 90.4019C144.839 104.657 127.167 111.92 112.25 106.625L108.146 105.168C100.353 102.402 94.8538 96.7553 92.3592 89.9608C84.9938 93.2556 76.449 93.9165 68.656 91.1501L64.5521 89.6932C49.6346 84.3976 43.1206 68.5485 50.0026 54.2932C56.2574 41.3372 71.4251 34.1568 85.3371 36.9313C85.6893 35.9216 86.1055 34.9157 86.5874 33.9175Z" fill="#83C082"/>
<path fill-rule="evenodd" clip-rule="evenodd" d="M8.45164 108.768C3.19667 114.624 0 122.364 0 130.851V132.05C0 150.315 14.8074 165.123 33.0732 165.123H42.7542C45.8913 165.123 48.9263 164.686 51.8018 163.87C47.894 175.188 51.714 187.755 62.7186 195.601L64.8352 197.11C79.7081 207.713 102.072 205.678 114.787 192.564L116.944 190.34C117.546 189.719 118.115 189.085 118.652 188.438C133.162 195.372 152.075 192.466 163.372 180.815L165.529 178.59C172.086 171.827 174.796 163.439 173.844 155.446H176.927C195.193 155.446 210 140.639 210 122.373V120.426C210 112.119 206.937 104.527 201.879 98.7178C195.816 105.681 186.885 110.083 176.927 110.083H173.844C174.796 118.076 172.086 126.464 165.529 133.226L163.372 135.451C152.075 147.102 133.162 150.008 118.652 143.075C118.115 143.721 117.546 144.355 116.945 144.976L114.787 147.201C102.073 160.315 79.7083 162.35 64.8354 151.746L62.7188 150.237C51.7141 142.391 47.8942 129.825 51.8021 118.506C48.9265 119.322 45.8914 119.759 42.7542 119.759H33.0732C23.2943 119.759 14.5066 115.515 8.45164 108.768Z" fill="#458244"/>
</svg>
