<svg width="176" height="225" viewBox="0 0 176 225" fill="none" xmlns="http://www.w3.org/2000/svg">
<path fill-rule="evenodd" clip-rule="evenodd" d="M25.8185 70.2562C25.8185 54.298 38.7552 41.3613 54.7134 41.3613H60.1154C76.0736 41.3613 89.0103 54.298 89.0103 70.2562C89.0103 71.4873 88.9333 72.7003 88.7839 73.8909C101.813 76.6907 111.579 88.2752 111.579 102.141C111.579 118.099 98.6422 131.036 82.684 131.036H77.282C69.0119 131.036 61.5532 127.561 56.286 121.992C51.0189 127.561 43.5602 131.036 35.2901 131.036H29.888C13.9298 131.036 0.993164 118.099 0.993164 102.141C0.993164 87.5013 11.88 75.4046 25.9992 73.5053C25.8798 72.4387 25.8185 71.3546 25.8185 70.2562Z" fill="#66A865"/>
<path fill-rule="evenodd" clip-rule="evenodd" d="M97.3026 153.893C86.3478 165.527 67.0245 167.293 54.1429 157.836C41.2613 148.379 39.6993 131.282 50.6542 119.647L51.1526 119.118C52.0339 118.182 52.9694 117.31 53.9514 116.502C46.5987 106.823 47.1088 93.4883 56.156 83.88L56.6544 83.3507C67.6093 71.7164 86.9325 69.9512 99.8141 79.4079C106.78 84.5219 110.436 91.8705 110.592 99.3811C118.984 98.1453 127.834 99.9774 134.801 105.092C147.682 114.548 149.244 131.646 138.289 143.28L137.791 143.809C128.25 153.942 112.362 156.589 99.9095 150.856C99.2672 151.716 98.5645 152.553 97.801 153.364L97.3026 153.893Z" fill="#66A865"/>
<path fill-rule="evenodd" clip-rule="evenodd" d="M89.2867 61.2774C89.2867 45.1419 102.367 32.0615 118.503 32.0615H123.965C140.1 32.0615 153.181 45.1419 153.181 61.2774C153.181 62.5221 153.103 63.7485 152.952 64.9521C166.125 67.7832 176 79.4963 176 93.5158C176 109.651 162.919 122.732 146.784 122.732H141.322C132.96 122.732 125.418 119.219 120.093 113.588C114.767 119.219 107.226 122.732 98.8635 122.732H93.4015C77.266 122.732 64.1855 109.651 64.1855 93.5158C64.1855 78.7137 75.1933 66.4827 89.4693 64.5622C89.3487 63.4839 89.2867 62.3879 89.2867 61.2774Z" fill="#66A865"/>
<path fill-rule="evenodd" clip-rule="evenodd" d="M88.3914 48.1837C88.3914 32.0482 101.472 18.9678 117.607 18.9678H123.069C139.205 18.9678 152.285 32.0482 152.285 48.1837C152.285 49.4285 152.207 50.6551 152.056 51.859C165.23 54.69 175.104 66.4031 175.104 80.4226C175.104 96.5582 162.024 109.639 145.889 109.639H140.426C132.064 109.639 124.523 106.126 119.197 100.495C113.872 106.126 106.33 109.639 97.968 109.639H92.506C76.3705 109.639 63.29 96.5582 63.29 80.4226C63.29 65.6205 74.2979 53.3894 88.574 51.469C88.4533 50.3906 88.3914 49.2944 88.3914 48.1837Z" fill="#66A865"/>
<path fill-rule="evenodd" clip-rule="evenodd" d="M36.6258 39.1464C36.6258 25.907 47.3584 15.1743 60.5978 15.1743H65.0795C78.3189 15.1743 89.0516 25.907 89.0516 39.1464C89.0516 40.1675 88.9877 41.1738 88.8638 42.1614C99.6729 44.4842 107.775 54.095 107.775 65.5983C107.775 78.8377 97.0426 89.5703 83.8032 89.5703H79.3215C72.4604 89.5703 66.2725 86.6879 61.9028 82.0679C57.533 86.6879 51.3451 89.5703 44.484 89.5703H40.0023C26.7629 89.5703 16.0303 78.8377 16.0303 65.5983C16.0303 53.4531 25.0621 43.4175 36.7756 41.8415C36.6766 40.9568 36.6258 40.0575 36.6258 39.1464Z" fill="#66A865"/>
<path fill-rule="evenodd" clip-rule="evenodd" d="M113.926 49.6234C123.939 58.9797 123.526 73.6817 113.004 82.4611C102.481 91.2405 85.8342 90.7727 75.8214 81.4163L74.7886 80.4513C74.0691 79.7789 73.4034 79.079 72.7915 78.3556C62.6659 82.9323 49.8952 81.2617 41.6372 73.5451L40.6044 72.58C30.5915 63.2236 31.0046 48.5217 41.527 39.7423C47.2176 34.9944 54.6994 32.951 61.9544 33.5553C61.6814 27.1251 64.4153 20.6448 70.106 15.8968C80.6285 7.11739 97.2756 7.58514 107.288 16.9415L108.321 17.9066C117.032 26.0466 117.852 38.2326 110.989 47.0446C111.647 47.5494 112.283 48.0873 112.894 48.6583L113.926 49.6234Z" fill="#66A865"/>
<path fill-rule="evenodd" clip-rule="evenodd" d="M62.0214 75.7236C62.0214 62.9636 72.3654 52.6196 85.1254 52.6196H89.4448C102.205 52.6196 112.549 62.9636 112.549 75.7236C112.549 76.7079 112.487 77.6778 112.368 78.6297C122.785 80.8686 130.594 90.1313 130.594 101.218C130.594 113.978 120.25 124.322 107.49 124.322H103.171C96.5578 124.322 90.594 121.544 86.3824 117.091C82.1709 121.544 76.207 124.322 69.5943 124.322H65.2749C52.5149 124.322 42.1709 113.978 42.1709 101.218C42.1709 89.5122 50.8761 79.8397 62.1658 78.3212C62.0704 77.4685 62.0214 76.6018 62.0214 75.7236Z" fill="#66A865"/>
<path fill-rule="evenodd" clip-rule="evenodd" d="M3.37977 88.5673C8.23957 97.684 17.8426 103.889 28.8949 103.889H34.2969C37.579 103.889 40.7333 103.342 43.6735 102.334C40.2569 112.421 43.5792 123.664 53.1494 130.69C66.031 140.146 85.3543 138.381 96.3091 126.747L96.8075 126.218C97.5709 125.407 98.2735 124.57 98.9158 123.71C111.368 129.443 127.257 126.796 136.798 116.664L137.296 116.134C142.942 110.138 145.263 102.691 144.424 95.586H145.791C158.847 95.586 169.903 87.0218 173.647 75.2046C173.952 76.8977 174.112 78.6414 174.112 80.4224C174.112 81.9867 173.989 83.5222 173.752 85.0199C174.568 87.7085 175.007 90.5611 175.007 93.5161C175.007 109.652 161.926 122.732 145.791 122.732H144.424C145.263 129.836 142.942 137.283 137.296 143.279L136.798 143.809C127.257 153.941 111.368 156.588 98.916 150.855C98.2737 151.715 97.571 152.552 96.8076 153.363L96.3092 153.892C85.3543 165.527 66.0311 167.292 53.1494 157.835C43.5794 150.81 40.257 139.567 43.6734 129.48C40.7332 130.488 37.5789 131.035 34.2969 131.035H28.8949C12.9367 131.035 0 118.098 0 102.14C0 97.2343 1.22261 92.614 3.37977 88.5673Z" fill="#458244"/>
<path d="M77.0423 65.2354H100.156L118.994 224.11H57.9072L77.0423 65.2354Z" fill="#93642D"/>
<path d="M76.8765 65.2354H100.321L110.248 150.747H66.8926L76.8765 65.2354Z" fill="#714D22"/>
<path fill-rule="evenodd" clip-rule="evenodd" d="M63.7799 77.7607C63.7799 65.0007 74.1239 54.6567 86.8839 54.6567H91.2032C103.963 54.6567 114.307 65.0007 114.307 77.7607C114.307 78.7448 114.246 79.7144 114.126 80.6661C124.544 82.9051 132.352 92.1677 132.352 103.254C132.352 116.014 122.008 126.358 109.248 126.358H104.929C98.3164 126.358 92.3526 123.58 88.141 119.127C83.9295 123.58 77.9657 126.358 71.3531 126.358H67.0337C54.2737 126.358 43.9297 116.014 43.9297 103.254C43.9297 91.5487 52.6347 81.8764 63.9242 80.3577C63.8288 79.5052 63.7799 78.6387 63.7799 77.7607Z" fill="#66A865"/>
<path fill-rule="evenodd" clip-rule="evenodd" d="M78.4636 47.3204C87.0067 52.4577 88.9966 63.0214 82.9083 70.9149C76.8199 78.8085 64.9588 81.0429 56.4158 75.9055L53.8232 74.3465C53.4643 74.1306 53.1169 73.9052 52.7813 73.6709C46.3243 78.4555 37.0629 79.2121 30.0422 74.9903L27.4496 73.4312C18.9066 68.2939 16.9166 57.7302 23.005 49.8366C26.2976 45.5677 31.2786 42.954 36.5101 42.2663C35.3188 37.7163 36.2488 32.6667 39.5413 28.3979C45.6297 20.5043 57.4908 18.27 66.0338 23.4073L68.6264 24.9664C76.0387 29.4238 78.5178 37.966 75.0676 45.305C75.3384 45.4501 75.6063 45.6022 75.871 45.7613L78.4636 47.3204Z" fill="#83C082"/>
</svg>
