<svg width="214" height="302" viewBox="0 0 214 302" fill="none" xmlns="http://www.w3.org/2000/svg">
<path fill-rule="evenodd" clip-rule="evenodd" d="M31.3933 89.0502C31.3933 70.7844 46.2007 55.9771 64.4665 55.9771H75.1557C93.4215 55.9771 108.229 70.7844 108.229 89.0502V99.6062C123.812 102.28 135.67 115.856 135.67 132.202V144.267C135.67 162.533 120.863 177.34 102.597 177.34H91.9077C82.7328 177.34 74.4305 173.604 68.439 167.571C62.4476 173.604 54.1453 177.34 44.9704 177.34H34.2812C16.0154 177.34 1.20801 162.533 1.20801 144.267V132.202C1.20801 114.909 14.4798 100.716 31.3933 99.2529V89.0502Z" fill="#66A865"/>
<path fill-rule="evenodd" clip-rule="evenodd" d="M115.553 211.535C103.756 225.48 82.7265 227.416 68.5823 215.858L63.0829 211.364C48.9386 199.807 47.0358 179.132 58.8329 165.187L64.8872 158.03C55.3656 146.146 55.2572 128.915 65.523 116.78L71.6444 109.544C83.4415 95.5987 104.471 93.6632 118.615 105.221L124.115 109.714C131.398 115.666 135.436 124.035 136.028 132.658C144.762 131.656 153.872 134.03 161.156 139.982L166.655 144.475C180.799 156.033 182.702 176.707 170.905 190.652L164.783 197.888C153.927 210.722 135.251 213.384 121.319 204.719L115.553 211.535Z" fill="#66A865"/>
<path fill-rule="evenodd" clip-rule="evenodd" d="M108.565 76.4643C108.565 58.1985 123.372 43.3911 141.638 43.3911H153.181C171.447 43.3911 186.254 58.1985 186.254 76.4643V87.449C201.987 89.9967 214 103.643 214 120.095V133.03C214 151.296 199.193 166.103 180.927 166.103H169.384C160.263 166.103 152.005 162.411 146.022 156.44C140.039 162.411 131.781 166.103 122.66 166.103H111.117C92.8513 166.103 78.0439 151.296 78.0439 133.03V120.095C78.0439 102.688 91.4916 88.4222 108.565 87.1192V76.4643Z" fill="#66A865"/>
<path fill-rule="evenodd" clip-rule="evenodd" d="M107.477 58.744C107.477 40.4782 122.284 25.6709 140.55 25.6709H152.093C170.359 25.6709 185.166 40.4783 185.166 58.7441V69.7284C200.899 72.2759 212.912 85.9224 212.912 102.375V115.309C212.912 133.575 198.105 148.382 179.839 148.382H168.296C159.176 148.382 150.917 144.69 144.934 138.72C138.951 144.69 130.693 148.382 121.572 148.382H110.029C91.7634 148.382 76.9561 133.575 76.9561 115.309V102.375C76.9561 84.9678 90.4037 70.7017 107.477 69.3986V58.744Z" fill="#66A865"/>
<path fill-rule="evenodd" clip-rule="evenodd" d="M44.5348 52.4092C44.5348 34.8065 58.8046 20.5366 76.4073 20.5366C94.01 20.5366 108.28 34.8064 108.28 52.4091V53.5509C108.28 54.9165 108.194 56.262 108.027 57.5824C121.323 61.419 131.046 73.6785 131.046 88.209V89.3507C131.046 106.953 116.776 121.223 99.1734 121.223C89.654 121.223 81.1093 117.05 75.2691 110.433C69.4289 117.05 60.8842 121.223 51.3647 121.223C33.762 121.223 19.4922 106.953 19.4922 89.3508V88.209C19.4922 72.8841 30.3079 60.0853 44.7225 57.0296C44.5985 55.8871 44.5348 54.7264 44.5348 53.5509V52.4092Z" fill="#66A865"/>
<path fill-rule="evenodd" clip-rule="evenodd" d="M138.657 67.2959C150.759 79.8827 150.198 99.7184 137.403 111.6C124.609 123.482 104.427 122.911 92.3252 110.324L90.8046 108.743C89.9756 107.88 89.206 106.984 88.4957 106.059C76.2028 112.258 60.7362 110.047 50.7605 99.6711L49.2399 98.0895C37.1383 85.5028 37.6999 65.6671 50.4942 53.7852C57.4134 47.3594 66.4932 44.5758 75.2872 45.3651C74.983 36.6915 78.3245 27.9396 85.2437 21.5139C98.038 9.63195 118.22 10.2033 130.322 22.7901L131.842 24.3716C142.366 35.3177 143.314 51.746 134.967 63.6578C135.715 64.3033 136.439 64.9889 137.137 65.7144L138.657 67.2959Z" fill="#66A865"/>
<path fill-rule="evenodd" clip-rule="evenodd" d="M75.4123 101.933C75.4123 84.968 89.1654 71.2148 106.131 71.2148C123.096 71.2148 136.849 84.9679 136.849 101.933V103.034C136.849 104.35 136.766 105.646 136.606 106.919C149.419 110.617 158.791 122.432 158.791 136.436V137.537C158.791 154.502 145.038 168.255 128.072 168.255C118.898 168.255 110.662 164.233 105.034 157.856C99.4048 164.233 91.1695 168.255 81.9947 168.255C65.0295 168.255 51.2764 154.502 51.2764 137.537V136.436C51.2764 121.666 61.7005 109.331 75.5931 106.386C75.4736 105.285 75.4123 104.166 75.4123 103.034V101.933Z" fill="#66A865"/>
<path fill-rule="evenodd" clip-rule="evenodd" d="M2.3774 119.866C7.26721 132.021 19.1681 140.603 33.0732 140.603H43.7624C46.3866 140.603 48.9395 140.297 51.3873 139.719C47.5032 152.01 51.2076 165.912 61.8751 174.628L67.3745 179.122C81.5188 190.68 102.548 188.744 114.345 174.799L120.111 167.983C134.044 176.648 152.719 173.985 163.576 161.152L169.697 153.916C175.729 146.785 178.179 137.896 177.243 129.365H179.719C195.066 129.365 207.973 118.911 211.704 104.735V111.653C212.414 114.348 212.792 117.177 212.792 120.095V133.03C212.792 151.296 197.984 166.103 179.719 166.103H177.243C178.179 174.633 175.729 183.522 169.697 190.652L163.576 197.889C152.719 210.722 134.044 213.384 120.111 204.72L114.345 211.535C102.548 225.48 81.5187 227.416 67.3744 215.858L61.8751 211.364C51.2082 202.648 47.5035 188.747 51.3866 176.458C48.939 177.035 46.3864 177.341 43.7624 177.341H33.0732C14.8074 177.341 0 162.533 0 144.268V132.202C0 127.841 0.843942 123.678 2.3774 119.866Z" fill="#458244"/>
<path d="M100.183 87.3643H121.776L139.374 302H82.3076L100.183 87.3643Z" fill="#93642D"/>
<path d="M100.029 87.3643H121.931L131.204 202.888H90.7021L100.029 87.3643Z" fill="#714D22"/>
<path fill-rule="evenodd" clip-rule="evenodd" d="M77.55 104.69C77.55 87.7248 91.3031 73.9717 108.268 73.9717C125.234 73.9717 138.987 87.7248 138.987 104.69V105.79C138.987 107.106 138.904 108.403 138.743 109.675C151.557 113.373 160.928 125.189 160.928 139.193V140.293C160.928 157.259 147.175 171.012 130.21 171.012C121.035 171.012 112.8 166.99 107.171 160.612C101.543 166.99 93.3072 171.012 84.1324 171.012C67.1672 171.012 53.4141 157.259 53.4141 140.293V139.193C53.4141 124.423 63.8382 112.088 77.7308 109.143C77.6113 108.042 77.55 106.923 77.55 105.79V104.69Z" fill="#66A865"/>
<path fill-rule="evenodd" clip-rule="evenodd" d="M94.6552 63.5413C105.456 70.7708 108.211 85.2919 100.808 95.9749C93.4053 106.658 78.6481 109.458 67.847 102.228L66.192 101.12C65.4963 100.655 64.834 100.159 64.2056 99.6354C56.2614 106.094 44.6776 106.945 35.7791 100.989L34.1241 99.881C23.323 92.6514 20.5682 78.1304 27.9711 67.4473C31.9746 61.67 38.1289 58.1982 44.6451 57.3715C43.0411 51.1094 44.0738 44.2096 48.0773 38.4323C55.4802 27.7493 70.2374 24.9497 81.0384 32.1792L82.6935 33.287C92.0824 39.5714 95.3915 51.3653 91.2338 61.3586C91.8328 61.6884 92.4222 62.0466 93.0002 62.4335L94.6552 63.5413Z" fill="#83C082"/>
</svg>
